<svg version="1.1" xmlns="http://www.w3.org/2000/svg" xmlns:xlink="http://www.w3.org/1999/xlink" stroke-linecap="round" stroke-linejoin="round" stroke-width="0" fill-rule="evenodd" clip-rule="evenodd" id="yVL0jzZ0liHAGgGL_vs2_bottom" viewBox="130000 -135000 60000 60000" width="60mm" height="60mm" class="w-100 h-100"><defs><style>.yVL0jzZ0liHAGgGL_vs2_fr4 {color: #666666;}
.yVL0jzZ0liHAGgGL_vs2_cu {color: #cccccc;}
.yVL0jzZ0liHAGgGL_vs2_cf {color: #cc9933;}
.yVL0jzZ0liHAGgGL_vs2_sm {color: #004200; opacity: 0.75;}
.yVL0jzZ0liHAGgGL_vs2_ss {color: #ffffff;}
.yVL0jzZ0liHAGgGL_vs2_sp {color: #999999;}
.yVL0jzZ0liHAGgGL_vs2_out {color: #000000;}</style><rect x="-1500" y="-1500" width="3000" height="3000" id="o-3oGb-TiF5bFTZifZRb_pad-10"/><circle cx="0" cy="0" r="1500" id="o-3oGb-TiF5bFTZifZRb_pad-11"/><circle cx="0" cy="0" r="712.5" id="o-3oGb-TiF5bFTZifZRb_pad-13"/><circle cx="0" cy="0" r="400" id="o-3oGb-TiF5bFTZifZRb_pad-14"/><circle cx="0" cy="0" r="98.45" id="d0c44t4QmYPKPxOFEIS7_pad-1"/><circle cx="0" cy="0" r="7.85" id="xfNR_MLOl2WdZXvQc6GB_pad-1"/><circle cx="0" cy="0" r="29.55" id="xfNR_MLOl2WdZXvQc6GB_pad-2"/><g id="yVL0jzZ0liHAGgGL_vs2_bottom_silkscreen"><path d="M 172642.857 -125678.571 172642.857 -124892.857 172714.285 -124750 172857.142 -124678.571 173142.857 -124678.571 173285.714 -124750 M 172642.857 -125607.142 172785.714 -125678.571 173142.857 -125678.571 173285.714 -125607.142 173357.142 -125464.285 173357.142 -125321.428 173285.714 -125178.571 173142.857 -125107.142 172785.714 -125107.142 172642.857 -125035.714 M 171142.857 -124250 171285.714 -124178.571 171500 -124178.571 171714.285 -124250 171857.142 -124392.857 171928.571 -124535.714 172000 -124821.428 172000 -125035.714 171928.571 -125321.428 171857.142 -125464.285 171714.285 -125607.142 171500 -125678.571 171357.142 -125678.571 171142.857 -125607.142 171071.428 -125535.714 171071.428 -125035.714 171357.142 -125035.714 M 170642.857 -124178.571 170142.857 -125678.571 169642.857 -124178.571 M 169285.714 -124678.571 168928.571 -125678.571 M 168571.428 -124678.571 168928.571 -125678.571 169071.428 -126035.714 169142.857 -126107.142 169285.714 -126178.571 M 168142.857 -124178.571 167142.857 -124178.571 168142.857 -125678.571 167142.857 -125678.571 M 166642.857 -125607.142 166428.571 -125678.571 166071.428 -125678.571 165928.571 -125607.142 165857.142 -125535.714 165785.714 -125392.857 165785.714 -125250 165857.142 -125107.142 165928.571 -125035.714 166071.428 -124964.285 166357.142 -124892.857 166500 -124821.428 166571.428 -124750 166642.857 -124607.142 166642.857 -124464.285 166571.428 -124321.428 166500 -124250 166357.142 -124178.571 166000 -124178.571 165785.714 -124250 M 164642.857 -124892.857 164428.571 -124964.285 164357.142 -125035.714 164285.714 -125178.571 164285.714 -125392.857 164357.142 -125535.714 164428.571 -125607.142 164571.428 -125678.571 165142.857 -125678.571 165142.857 -124178.571 164642.857 -124178.571 164500 -124250 164428.571 -124321.428 164357.142 -124464.285 164357.142 -124607.142 164428.571 -124750 164500 -124821.428 164642.857 -124892.857 165142.857 -124892.857 M 163642.857 -125678.571 163642.857 -124678.571 M 163642.857 -124178.571 163714.285 -124250 163642.857 -124321.428 163571.428 -124250 163642.857 -124178.571 163642.857 -124321.428 M 163071.428 -124178.571 162071.428 -124178.571 163071.428 -125678.571 162071.428 -125678.571 M 161571.428 -125607.142 161357.142 -125678.571 161000 -125678.571 160857.142 -125607.142 160785.714 -125535.714 160714.285 -125392.857 160714.285 -125250 160785.714 -125107.142 160857.142 -125035.714 161000 -124964.285 161285.714 -124892.857 161428.571 -124821.428 161500 -124750 161571.428 -124607.142 161571.428 -124464.285 161500 -124321.428 161428.571 -124250 161285.714 -124178.571 160928.571 -124178.571 160714.285 -124250 M 159571.428 -124892.857 159357.142 -124964.285 159285.714 -125035.714 159214.285 -125178.571 159214.285 -125392.857 159285.714 -125535.714 159357.142 -125607.142 159500 -125678.571 160071.428 -125678.571 160071.428 -124178.571 159571.428 -124178.571 159428.571 -124250 159357.142 -124321.428 159285.714 -124464.285 159285.714 -124607.142 159357.142 -124750 159428.571 -124821.428 159571.428 -124892.857 160071.428 -124892.857 M 158571.428 -125678.571 158571.428 -124178.571 M 158428.571 -125107.142 158000 -125678.571 M 158000 -124678.571 158571.428 -125250 M 156714.285 -125607.142 156857.142 -125678.571 157142.857 -125678.571 157285.714 -125607.142 157357.142 -125535.714 157428.571 -125392.857 157428.571 -124964.285 157357.142 -124821.428 157285.714 -124750 157142.857 -124678.571 156857.142 -124678.571 156714.285 -124750 M 156071.428 -125678.571 156071.428 -124678.571 M 156071.428 -124821.428 156000 -124750 155857.142 -124678.571 155642.857 -124678.571 155500 -124750 155428.571 -124892.857 155428.571 -125678.571 M 155428.571 -124892.857 155357.142 -124750 155214.285 -124678.571 155000 -124678.571 154857.142 -124750 154785.714 -124892.857 154785.714 -125678.571 M 153571.428 -124892.857 154071.428 -124892.857 M 154071.428 -125678.571 154071.428 -124178.571 153357.142 -124178.571 M 152785.714 -124678.571 152785.714 -125678.571 M 152785.714 -124821.428 152714.285 -124750 152571.428 -124678.571 152357.142 -124678.571 152214.285 -124750 152142.857 -124892.857 152142.857 -125678.571 M 151428.571 -125678.571 151428.571 -124178.571 M 151428.571 -124750 151285.714 -124678.571 151000 -124678.571 150857.142 -124750 150785.714 -124821.428 150714.285 -124964.285 150714.285 -125392.857 150785.714 -125535.714 150857.142 -125607.142 151000 -125678.571 151285.714 -125678.571 151428.571 -125607.142 M 150142.857 -124321.428 150071.428 -124250 149928.571 -124178.571 149571.428 -124178.571 149428.571 -124250 149357.142 -124321.428 149285.714 -124464.285 149285.714 -124607.142 149357.142 -124821.428 150214.285 -125678.571 149285.714 -125678.571 M 147928.571 -124178.571 148642.857 -124178.571 148714.285 -124892.857 148642.857 -124821.428 148500 -124750 148142.857 -124750 148000 -124821.428 147928.571 -124892.857 147857.142 -125035.714 147857.142 -125392.857 147928.571 -125535.714 148000 -125607.142 148142.857 -125678.571 148500 -125678.571 148642.857 -125607.142 148714.285 -125535.714 M 147357.142 -124678.571 146571.428 -124678.571 147357.142 -125678.571 146571.428 -125678.571" fill="none" stroke-width="300"/><path d="M 172611 -104140 172611 -109140 M 172061 -109690 A 550 550 0 0 1 172611 -109140 M 172061 -103590 A 550 550 0 0 0 172611 -104140 M 172061 -109690 169611 -109690 M 169611 -103590 172061 -103590 M 139090 -93385.436 139090 -94589.564 M 140910 -93385.436 140910 -94589.564" fill="none" stroke-width="120"/><path d="M 168382.428 -106747.142 167239.571 -106747.142 M 167811 -107318.571 167811 -106175.714" fill="none" stroke-width="150"/></g><g id="yVL0jzZ0liHAGgGL_vs2_bottom_copper"><use xlink:href="#o-3oGb-TiF5bFTZifZRb_pad-10" x="170561" y="-106640"/><use xlink:href="#o-3oGb-TiF5bFTZifZRb_pad-11" x="150071" y="-106640"/><path d="M 140649.504 -91788.704 140673.773 -91792.304 140697.571 -91798.265 140720.671 -91806.53 140742.849 -91817.02 140763.893 -91829.633 140783.598 -91844.247 140801.777 -91860.723 140818.253 -91878.902 140832.867 -91898.607 140845.48 -91919.651 140855.97 -91941.829 140864.235 -91964.929 140870.196 -91988.727 140873.796 -92012.996 140875 -92037.5 140875 -92962.5 140873.796 -92987.004 140870.196 -93011.273 140864.235 -93035.071 140855.97 -93058.171 140845.48 -93080.349 140832.867 -93101.393 140818.253 -93121.098 140801.777 -93139.277 140783.598 -93155.753 140763.893 -93170.367 140742.849 -93182.98 140720.671 -93193.47 140697.571 -93201.735 140673.773 -93207.696 140649.504 -93211.296 140625 -93212.5 139375 -93212.5 139350.496 -93211.296 139326.227 -93207.696 139302.429 -93201.735 139279.329 -93193.47 139257.151 -93182.98 139236.107 -93170.367 139216.402 -93155.753 139198.223 -93139.277 139181.747 -93121.098 139167.133 -93101.393 139154.52 -93080.349 139144.03 -93058.171 139135.765 -93035.071 139129.804 -93011.273 139126.204 -92987.004 139125 -92962.5 139125 -92037.5 139126.204 -92012.996 139129.804 -91988.727 139135.765 -91964.929 139144.03 -91941.829 139154.52 -91919.651 139167.133 -91898.607 139181.747 -91878.902 139198.223 -91860.723 139216.402 -91844.247 139236.107 -91829.633 139257.151 -91817.02 139279.329 -91806.53 139302.429 -91798.265 139326.227 -91792.304 139350.496 -91788.704 139375 -91787.5 140625 -91787.5 140649.504 -91788.704 140649.504 -91788.704"/><use xlink:href="#o-3oGb-TiF5bFTZifZRb_pad-13" x="140000" y="-92500"/><path d="M 140649.504 -94763.704 140673.773 -94767.304 140697.571 -94773.265 140720.671 -94781.53 140742.849 -94792.02 140763.893 -94804.633 140783.598 -94819.247 140801.777 -94835.723 140818.253 -94853.902 140832.867 -94873.607 140845.48 -94894.651 140855.97 -94916.829 140864.235 -94939.929 140870.196 -94963.727 140873.796 -94987.996 140875 -95012.5 140875 -95937.5 140873.796 -95962.004 140870.196 -95986.273 140864.235 -96010.071 140855.97 -96033.171 140845.48 -96055.349 140832.867 -96076.393 140818.253 -96096.098 140801.777 -96114.277 140783.598 -96130.753 140763.893 -96145.367 140742.849 -96157.98 140720.671 -96168.47 140697.571 -96176.735 140673.773 -96182.696 140649.504 -96186.296 140625 -96187.5 139375 -96187.5 139350.496 -96186.296 139326.227 -96182.696 139302.429 -96176.735 139279.329 -96168.47 139257.151 -96157.98 139236.107 -96145.367 139216.402 -96130.753 139198.223 -96114.277 139181.747 -96096.098 139167.133 -96076.393 139154.52 -96055.349 139144.03 -96033.171 139135.765 -96010.071 139129.804 -95986.273 139126.204 -95962.004 139125 -95937.5 139125 -95012.5 139126.204 -94987.996 139129.804 -94963.727 139135.765 -94939.929 139144.03 -94916.829 139154.52 -94894.651 139167.133 -94873.607 139181.747 -94853.902 139198.223 -94835.723 139216.402 -94819.247 139236.107 -94804.633 139257.151 -94792.02 139279.329 -94781.53 139302.429 -94773.265 139326.227 -94767.304 139350.496 -94763.704 139375 -94762.5 140625 -94762.5 140649.504 -94763.704 140649.504 -94763.704"/><use xlink:href="#o-3oGb-TiF5bFTZifZRb_pad-13" x="140000" y="-95475"/><use xlink:href="#o-3oGb-TiF5bFTZifZRb_pad-14" x="170180" y="-91400"/><use xlink:href="#o-3oGb-TiF5bFTZifZRb_pad-14" x="165100" y="-88860"/><path d="M 170180 -91400 170180 -91400 M 175400 -96620 170180 -91400 M 175400 -116400 175400 -96620 M 157200 -116400 175400 -116400 M 150071 -106640 150071 -109271 157200 -116400 M 143512.5 -98987.5 140000 -95475 M 157687.5 -98987.5 143512.5 -98987.5 M 170561 -106640 165340 -106640 157687.5 -98987.5 M 165100 -88860 165100 -88860 M 143640 -88860 140000 -92500 M 165100 -88860 143640 -88860" fill="none" stroke-width="500"/><path d="M 161992.168 -75777.827 164076.38 -75995.048 166139.728 -76360.729 168171.649 -76872.998 170161.745 -77529.233 172099.829 -78326.076 173975.98 -79259.447 175780.596 -80324.569 177504.441 -81515.991 179138.689 -82827.615 180674.978 -84252.726 182105.444 -85784.031 183422.764 -87413.692 184620.196 -89133.367 185691.611 -90934.254 186631.526 -92807.136 187435.128 -94742.426 188098.306 -96730.219 188617.665 -98760.34 188990.546 -100822.399 189215.041 -102905.84 189290 -105000 189241.432 -106686.05 189046.048 -108772.423 188701.995 -110839.487 188211.032 -112876.662 187575.672 -114873.52 186799.169 -116819.842 185885.495 -118705.664 184839.329 -120521.335 183666.024 -122257.561 182371.586 -123905.456 180962.64 -125456.584 179446.399 -126903.006 177830.622 -128237.319 176123.581 -129452.694 174334.012 -130542.909 172471.075 -131502.384 170544.307 -132326.209 168563.567 -133010.166 166538.996 -133550.755 164480.955 -133945.209 162399.979 -134191.509 160306.719 -134288.394 158211.888 -134235.368 156126.21 -134032.703 154060.36 -133681.436 152024.912 -133183.365 150030.283 -132541.039 148086.684 -131757.746 146204.062 -130837.496 144392.054 -129784.998 142659.934 -128605.639 141016.568 -127305.457 139470.368 -125891.106 138029.247 -124369.825 136700.582 -122749.4 135491.173 -121038.127 134407.212 -119244.763 133454.245 -117378.489 132637.151 -115448.856 131960.112 -113465.741 131426.593 -111439.295 131039.326 -109379.89 130898.566 -108153.97 148736.635 -108153.97 148896.418 -108472.739 149687.187 -108782.723 150536.387 -108766.497 151245.582 -108472.739 151405.365 -108153.97 150071 -106819.605 148736.635 -108153.97 130898.566 -108153.97 130800.291 -107298.067 130755.713 -106256.187 147928.277 -106256.187 147944.503 -107105.387 148238.261 -107814.582 148557.03 -107974.365 149891.395 -106640 150250.605 -106640 151584.97 -107974.365 151903.739 -107814.582 152213.723 -107023.813 152197.497 -106174.613 151903.739 -105465.418 151584.97 -105305.635 150250.605 -106640 149891.395 -106640 148557.03 -105305.635 148238.261 -105465.418 147928.277 -106256.187 130755.713 -106256.187 130710.714 -105204.481 130712.973 -105126.03 148736.635 -105126.03 150071 -106460.395 151405.365 -105126.03 151245.582 -104807.261 150454.813 -104497.277 149605.613 -104513.503 148896.418 -104807.261 148736.635 -105126.03 130712.973 -105126.03 130771.052 -103109.849 130980.996 -101024.891 131339.472 -98960.279 131844.645 -96926.582 132468.414 -95012.5 138477.56 -95012.5 138477.56 -95937.5 138545.874 -96280.935 138740.414 -96572.086 139031.565 -96766.626 139375 -96834.94 140108.362 -96834.94 142825.077 -99551.656 142874.451 -99625.549 142948.344 -99674.923 142948.345 -99674.924 143059.38 -99749.115 143167.19 -99821.152 143425.335 -99872.5 143425.339 -99872.5 143512.499 -99889.837 143599.659 -99872.5 157320.922 -99872.5 164652.577 -107204.156 164701.951 -107278.049 164775.844 -107327.423 164775.845 -107327.424 164886.88 -107401.615 164994.69 -107473.652 165252.835 -107525 165252.839 -107525 165339.999 -107542.337 165427.159 -107525 168413.56 -107525 168413.56 -108140 168462.843 -108387.765 168603.191 -108597.809 168813.235 -108738.157 169061 -108787.44 172061 -108787.44 172308.765 -108738.157 172518.809 -108597.809 172659.157 -108387.765 172708.44 -108140 172708.44 -105140 172659.157 -104892.235 172518.809 -104682.191 172308.765 -104541.843 172061 -104492.56 169061 -104492.56 168813.235 -104541.843 168603.191 -104682.191 168462.843 -104892.235 168413.56 -105140 168413.56 -105755 165706.579 -105755 158374.925 -98423.347 158325.549 -98349.451 158032.81 -98153.848 157774.665 -98102.5 157774.661 -98102.5 157687.5 -98085.163 157600.339 -98102.5 143879.079 -98102.5 141522.44 -95745.862 141522.44 -95012.5 141454.126 -94669.065 141259.586 -94377.914 140968.435 -94183.374 140625 -94115.06 139375 -94115.06 139031.565 -94183.374 138740.414 -94377.914 138545.874 -94669.065 138477.56 -95012.5 132468.414 -95012.5 132493.929 -94934.208 133284.002 -92993.354 133755.376 -92037.5 138477.56 -92037.5 138477.56 -92962.5 138545.874 -93305.935 138740.414 -93597.086 139031.565 -93791.626 139375 -93859.94 140625 -93859.94 140968.435 -93791.626 141259.586 -93597.086 141454.126 -93305.935 141522.44 -92962.5 141522.44 -92229.138 144006.579 -89745 164531.993 -89745 164894.126 -89895 165305.874 -89895 165686.28 -89737.431 165977.431 -89446.28 166135 -89065.874 166135 -88654.126 165977.431 -88273.72 165686.28 -87982.569 165305.874 -87825 164894.126 -87825 164531.993 -87975 143727.159 -87975 143639.999 -87957.663 143552.839 -87975 143552.835 -87975 143294.69 -88026.348 143294.688 -88026.349 143294.689 -88026.349 143075.845 -88172.576 143075.844 -88172.577 143001.951 -88221.951 142952.577 -88295.844 140108.362 -91140.06 139375 -91140.06 139031.565 -91208.374 138740.414 -91402.914 138545.874 -91694.065 138477.56 -92037.5 133755.376 -92037.5 134210.818 -91113.956 135269.635 -89305.633 136455.033 -87577.641 137760.943 -85938.823 139180.683 -84397.569 140706.986 -82961.767 142332.038 -81638.767 144047.523 -80435.339 145813.365 -79376.41 156865 -79376.41 156865 -80623.59 157342.276 -81775.835 158224.165 -82657.724 159376.41 -83135 160623.59 -83135 161775.835 -82657.724 162657.724 -81775.835 163135 -80623.59 163135 -79376.41 162657.724 -78224.165 161775.835 -77342.276 160623.59 -76865 159376.41 -76865 158224.165 -77342.276 157342.276 -78224.165 156865 -79376.41 145813.365 -79376.41 145844.659 -79357.644 147714.249 -78411.198 149646.722 -77600.844 151632.188 -76930.732 153660.484 -76404.29 155721.228 -76024.213 157803.873 -75792.447 159897.759 -75710.178 161992.168 -75777.827 161992.168 -75777.827"/><path d="M 161992.168 -75777.827 164076.38 -75995.048 166139.728 -76360.729 168171.649 -76872.998 170161.745 -77529.233 172099.829 -78326.076 173975.98 -79259.447 175780.596 -80324.569 177504.441 -81515.991 179138.689 -82827.615 180674.978 -84252.726 182105.444 -85784.031 183422.764 -87413.692 184620.196 -89133.367 185691.611 -90934.254 186631.526 -92807.136 187435.128 -94742.426 188098.306 -96730.219 188617.665 -98760.34 188990.546 -100822.399 189215.041 -102905.84 189290 -105000 189241.432 -106686.05 189046.048 -108772.423 188701.995 -110839.487 188211.032 -112876.662 187575.672 -114873.52 186799.169 -116819.842 185885.495 -118705.664 184839.329 -120521.335 183666.024 -122257.561 182371.586 -123905.456 180962.64 -125456.584 179446.399 -126903.006 177830.622 -128237.319 176123.581 -129452.694 174334.012 -130542.909 172471.075 -131502.384 170544.307 -132326.209 168563.567 -133010.166 166538.996 -133550.755 164480.955 -133945.209 162399.979 -134191.509 160306.719 -134288.394 158211.888 -134235.368 156126.21 -134032.703 154060.36 -133681.436 152024.912 -133183.365 150030.283 -132541.039 148086.684 -131757.746 146204.062 -130837.496 144392.054 -129784.998 142659.934 -128605.639 141016.568 -127305.457 139470.368 -125891.106 138029.247 -124369.825 136700.582 -122749.4 135491.173 -121038.127 134407.212 -119244.763 133454.245 -117378.489 132637.151 -115448.856 131960.112 -113465.741 131426.593 -111439.295 131039.326 -109379.89 130898.566 -108153.97 148736.635 -108153.97 148896.418 -108472.739 149687.187 -108782.723 150536.387 -108766.497 151245.582 -108472.739 151405.365 -108153.97 150071 -106819.605 148736.635 -108153.97 130898.566 -108153.97 130800.291 -107298.067 130755.713 -106256.187 147928.277 -106256.187 147944.503 -107105.387 148238.261 -107814.582 148557.03 -107974.365 149891.395 -106640 150250.605 -106640 151584.97 -107974.365 151903.739 -107814.582 152213.723 -107023.813 152197.497 -106174.613 151903.739 -105465.418 151584.97 -105305.635 150250.605 -106640 149891.395 -106640 148557.03 -105305.635 148238.261 -105465.418 147928.277 -106256.187 130755.713 -106256.187 130710.714 -105204.481 130712.973 -105126.03 148736.635 -105126.03 150071 -106460.395 151405.365 -105126.03 151245.582 -104807.261 150454.813 -104497.277 149605.613 -104513.503 148896.418 -104807.261 148736.635 -105126.03 130712.973 -105126.03 130771.052 -103109.849 130980.996 -101024.891 131339.472 -98960.279 131844.645 -96926.582 132468.414 -95012.5 138477.56 -95012.5 138477.56 -95937.5 138545.874 -96280.935 138740.414 -96572.086 139031.565 -96766.626 139375 -96834.94 140108.362 -96834.94 142825.077 -99551.656 142874.451 -99625.549 142948.344 -99674.923 142948.345 -99674.924 143059.38 -99749.115 143167.19 -99821.152 143425.335 -99872.5 143425.339 -99872.5 143512.499 -99889.837 143599.659 -99872.5 157320.922 -99872.5 164652.577 -107204.156 164701.951 -107278.049 164775.844 -107327.423 164775.845 -107327.424 164886.88 -107401.615 164994.69 -107473.652 165252.835 -107525 165252.839 -107525 165339.999 -107542.337 165427.159 -107525 168413.56 -107525 168413.56 -108140 168462.843 -108387.765 168603.191 -108597.809 168813.235 -108738.157 169061 -108787.44 172061 -108787.44 172308.765 -108738.157 172518.809 -108597.809 172659.157 -108387.765 172708.44 -108140 172708.44 -105140 172659.157 -104892.235 172518.809 -104682.191 172308.765 -104541.843 172061 -104492.56 169061 -104492.56 168813.235 -104541.843 168603.191 -104682.191 168462.843 -104892.235 168413.56 -105140 168413.56 -105755 165706.579 -105755 158374.925 -98423.347 158325.549 -98349.451 158032.81 -98153.848 157774.665 -98102.5 157774.661 -98102.5 157687.5 -98085.163 157600.339 -98102.5 143879.079 -98102.5 141522.44 -95745.862 141522.44 -95012.5 141454.126 -94669.065 141259.586 -94377.914 140968.435 -94183.374 140625 -94115.06 139375 -94115.06 139031.565 -94183.374 138740.414 -94377.914 138545.874 -94669.065 138477.56 -95012.5 132468.414 -95012.5 132493.929 -94934.208 133284.002 -92993.354 133755.376 -92037.5 138477.56 -92037.5 138477.56 -92962.5 138545.874 -93305.935 138740.414 -93597.086 139031.565 -93791.626 139375 -93859.94 140625 -93859.94 140968.435 -93791.626 141259.586 -93597.086 141454.126 -93305.935 141522.44 -92962.5 141522.44 -92229.138 144006.579 -89745 164531.993 -89745 164894.126 -89895 165305.874 -89895 165686.28 -89737.431 165977.431 -89446.28 166135 -89065.874 166135 -88654.126 165977.431 -88273.72 165686.28 -87982.569 165305.874 -87825 164894.126 -87825 164531.993 -87975 143727.159 -87975 143639.999 -87957.663 143552.839 -87975 143552.835 -87975 143294.69 -88026.348 143294.688 -88026.349 143294.689 -88026.349 143075.845 -88172.576 143075.844 -88172.577 143001.951 -88221.951 142952.577 -88295.844 140108.362 -91140.06 139375 -91140.06 139031.565 -91208.374 138740.414 -91402.914 138545.874 -91694.065 138477.56 -92037.5 133755.376 -92037.5 134210.818 -91113.956 135269.635 -89305.633 136455.033 -87577.641 137760.943 -85938.823 139180.683 -84397.569 140706.986 -82961.767 142332.038 -81638.767 144047.523 -80435.339 145813.365 -79376.41 156865 -79376.41 156865 -80623.59 157342.276 -81775.835 158224.165 -82657.724 159376.41 -83135 160623.59 -83135 161775.835 -82657.724 162657.724 -81775.835 163135 -80623.59 163135 -79376.41 162657.724 -78224.165 161775.835 -77342.276 160623.59 -76865 159376.41 -76865 158224.165 -77342.276 157342.276 -78224.165 156865 -79376.41 145813.365 -79376.41 145844.659 -79357.644 147714.249 -78411.198 149646.722 -77600.844 151632.188 -76930.732 153660.484 -76404.29 155721.228 -76024.213 157803.873 -75792.447 159897.759 -75710.178 161992.168 -75777.827" fill="none" stroke-width="254"/></g><g id="yVL0jzZ0liHAGgGL_vs2_bottom_soldermask"><path d="M 172112 -108191 169010 -108191 169010 -105089 172112 -105089 172112 -108191 172112 -108191"/><path d="M 150423.527 -105128.736 150523.41 -105148.604 150805.674 -105265.521 151059.705 -105435.259 151275.741 -105651.295 151445.479 -105905.326 151562.396 -106187.59 151622 -106487.24 151622 -106792.76 151562.396 -107092.41 151445.479 -107374.674 151275.741 -107628.705 151059.705 -107844.741 150805.674 -108014.479 150523.41 -108131.396 150423.527 -108151.264 150223.762 -108191 149918.238 -108191 149718.473 -108151.264 149618.59 -108131.396 149336.326 -108014.479 149082.295 -107844.741 148866.259 -107628.705 148696.521 -107374.674 148579.604 -107092.41 148520 -106792.76 148520 -106487.24 148579.604 -106187.59 148696.521 -105905.326 148866.259 -105651.295 149082.295 -105435.259 149336.326 -105265.521 149618.59 -105148.604 149718.473 -105128.736 149918.238 -105089 150223.762 -105089 150423.527 -105128.736 150423.527 -105128.736"/><path d="M 140775.562 -94715.681 140810.477 -94726.273 140842.665 -94743.478 140870.873 -94766.627 140894.022 -94794.835 140911.227 -94827.023 140921.819 -94861.938 140926 -94904.395 140926 -96045.605 140921.819 -96088.062 140911.227 -96122.977 140894.022 -96155.165 140870.873 -96183.373 140842.665 -96206.522 140810.477 -96223.727 140775.562 -96234.319 140733.105 -96238.5 139266.895 -96238.5 139224.438 -96234.319 139189.523 -96223.727 139157.335 -96206.522 139129.127 -96183.373 139105.978 -96155.165 139088.773 -96122.977 139078.181 -96088.062 139074 -96045.605 139074 -94904.395 139078.181 -94861.938 139088.773 -94827.023 139105.978 -94794.835 139129.127 -94766.627 139157.335 -94743.478 139189.523 -94726.273 139224.438 -94715.681 139266.895 -94711.5 140733.105 -94711.5 140775.562 -94715.681 140775.562 -94715.681"/><path d="M 140775.562 -91740.681 140810.477 -91751.273 140842.665 -91768.478 140870.873 -91791.627 140894.022 -91819.835 140911.227 -91852.023 140921.819 -91886.938 140926 -91929.395 140926 -93070.605 140921.819 -93113.062 140911.227 -93147.977 140894.022 -93180.165 140870.873 -93208.373 140842.665 -93231.522 140810.477 -93248.727 140775.562 -93259.319 140733.105 -93263.5 139266.895 -93263.5 139224.438 -93259.319 139189.523 -93248.727 139157.335 -93231.522 139129.127 -93208.373 139105.978 -93180.165 139088.773 -93147.977 139078.181 -93113.062 139074 -93070.605 139074 -91929.395 139078.181 -91886.938 139088.773 -91852.023 139105.978 -91819.835 139129.127 -91791.627 139157.335 -91768.478 139189.523 -91751.273 139224.438 -91740.681 139266.895 -91736.5 140733.105 -91736.5 140775.562 -91740.681 140775.562 -91740.681"/><path d="M 160744.096 -77547.033 160744.098 -77547.034 160744.099 -77547.034 161208.352 -77739.333 161624.284 -78017.25 161626.171 -78018.511 161981.489 -78373.829 161981.491 -78373.832 162260.667 -78791.648 162452.966 -79255.901 162551 -79748.748 162551 -80251.252 162452.966 -80744.099 162260.667 -81208.352 161982.75 -81624.284 161981.489 -81626.171 161626.171 -81981.489 161626.168 -81981.491 161208.352 -82260.667 160744.099 -82452.966 160744.098 -82452.966 160744.096 -82452.967 160251.253 -82551 159748.747 -82551 159255.904 -82452.967 159255.902 -82452.966 159255.901 -82452.966 158791.648 -82260.667 158373.832 -81981.491 158373.829 -81981.489 158018.511 -81626.171 158017.25 -81624.284 157739.333 -81208.352 157547.034 -80744.099 157449 -80251.252 157449 -79748.748 157547.034 -79255.901 157739.333 -78791.648 158018.509 -78373.832 158018.511 -78373.829 158373.829 -78018.511 158375.716 -78017.25 158791.648 -77739.333 159255.901 -77547.034 159255.902 -77547.034 159255.904 -77547.033 159748.747 -77449 160251.253 -77449 160744.096 -77547.033 160744.096 -77547.033"/></g><g id="yVL0jzZ0liHAGgGL_vs2_bottom_drill1" transform="scale(25.4,25.4)"><use xlink:href="#d0c44t4QmYPKPxOFEIS7_pad-1" x="6299.2" y="-3149.6"/></g><g id="yVL0jzZ0liHAGgGL_vs2_bottom_drill2" transform="scale(25.4,25.4)"><use xlink:href="#xfNR_MLOl2WdZXvQc6GB_pad-1" x="6500" y="-3498.4"/><use xlink:href="#xfNR_MLOl2WdZXvQc6GB_pad-1" x="6700" y="-3598.4"/><use xlink:href="#xfNR_MLOl2WdZXvQc6GB_pad-2" x="5908.3" y="-4198.4"/><use xlink:href="#xfNR_MLOl2WdZXvQc6GB_pad-2" x="6715" y="-4198.4"/></g><clipPath id="yVL0jzZ0liHAGgGL_vs2_bottom_outline"><path d="M 190000 -105000 A 30000 30000 0 0 1 130000 -105000 30000 30000 0 0 1 190000 -105000" fill="none" stroke-width="150"/></clipPath><mask id="yVL0jzZ0liHAGgGL_vs2_bottom_mech-mask"><g fill="#000" stroke="#000"><rect x="130000" y="-135000" width="60000" height="60000" fill="#fff"/><use xlink:href="#yVL0jzZ0liHAGgGL_vs2_bottom_drill1"/><use xlink:href="#yVL0jzZ0liHAGgGL_vs2_bottom_drill2"/></g></mask><mask id="yVL0jzZ0liHAGgGL_vs2_bottom_cf-mask"><g fill="#fff" stroke="#fff"><use xlink:href="#yVL0jzZ0liHAGgGL_vs2_bottom_soldermask"/></g></mask><mask id="yVL0jzZ0liHAGgGL_vs2_bottom_sm-mask"><g fill="#000" stroke="#000"><rect x="130000" y="-135000" width="60000" height="60000" fill="#fff"/><use xlink:href="#yVL0jzZ0liHAGgGL_vs2_bottom_soldermask"/></g></mask></defs><g transform="translate(0,-210000) scale(1,-1)"><g mask="url(#yVL0jzZ0liHAGgGL_vs2_bottom_mech-mask)" clip-path="url(#yVL0jzZ0liHAGgGL_vs2_bottom_outline)" transform="translate(320000,0) scale(-1,1)"><rect x="130000" y="-135000" width="60000" height="60000" fill="currentColor" class="yVL0jzZ0liHAGgGL_vs2_fr4"/><use xlink:href="#yVL0jzZ0liHAGgGL_vs2_bottom_copper" fill="currentColor" stroke="currentColor" class="yVL0jzZ0liHAGgGL_vs2_cu"/><use xlink:href="#yVL0jzZ0liHAGgGL_vs2_bottom_copper" fill="currentColor" stroke="currentColor" class="yVL0jzZ0liHAGgGL_vs2_cf" mask="url(#yVL0jzZ0liHAGgGL_vs2_bottom_cf-mask)"/><g mask="url(#yVL0jzZ0liHAGgGL_vs2_bottom_sm-mask)"><rect x="130000" y="-135000" width="60000" height="60000" fill="currentColor" class="yVL0jzZ0liHAGgGL_vs2_sm"/><use xlink:href="#yVL0jzZ0liHAGgGL_vs2_bottom_silkscreen" fill="currentColor" stroke="currentColor" class="yVL0jzZ0liHAGgGL_vs2_ss"/></g></g></g></svg>