G04 #@! TF.GenerationSoftware,KiCad,Pcbnew,(5.0.2)-1*
G04 #@! TF.CreationDate,2020-03-01T21:18:26+01:00*
G04 #@! TF.ProjectId,dragon,64726167-6f6e-42e6-9b69-6361645f7063,rev?*
G04 #@! TF.SameCoordinates,Original*
G04 #@! TF.FileFunction,Legend,Bot*
G04 #@! TF.FilePolarity,Positive*
%FSLAX46Y46*%
G04 Gerber Fmt 4.6, Leading zero omitted, Abs format (unit mm)*
G04 Created by KiCad (PCBNEW (5.0.2)-1) date 3/1/2020 9:18:26 PM*
%MOMM*%
%LPD*%
G01*
G04 APERTURE LIST*
%ADD10C,0.300000*%
%ADD11C,0.120000*%
%ADD12C,0.150000*%
G04 APERTURE END LIST*
D10*
X172642857Y-125678571D02*
X172642857Y-124892857D01*
X172714285Y-124750000D01*
X172857142Y-124678571D01*
X173142857Y-124678571D01*
X173285714Y-124750000D01*
X172642857Y-125607142D02*
X172785714Y-125678571D01*
X173142857Y-125678571D01*
X173285714Y-125607142D01*
X173357142Y-125464285D01*
X173357142Y-125321428D01*
X173285714Y-125178571D01*
X173142857Y-125107142D01*
X172785714Y-125107142D01*
X172642857Y-125035714D01*
X171142857Y-124250000D02*
X171285714Y-124178571D01*
X171500000Y-124178571D01*
X171714285Y-124250000D01*
X171857142Y-124392857D01*
X171928571Y-124535714D01*
X172000000Y-124821428D01*
X172000000Y-125035714D01*
X171928571Y-125321428D01*
X171857142Y-125464285D01*
X171714285Y-125607142D01*
X171500000Y-125678571D01*
X171357142Y-125678571D01*
X171142857Y-125607142D01*
X171071428Y-125535714D01*
X171071428Y-125035714D01*
X171357142Y-125035714D01*
X170642857Y-124178571D02*
X170142857Y-125678571D01*
X169642857Y-124178571D01*
X169285714Y-124678571D02*
X168928571Y-125678571D01*
X168571428Y-124678571D02*
X168928571Y-125678571D01*
X169071428Y-126035714D01*
X169142857Y-126107142D01*
X169285714Y-126178571D01*
X168142857Y-124178571D02*
X167142857Y-124178571D01*
X168142857Y-125678571D01*
X167142857Y-125678571D01*
X166642857Y-125607142D02*
X166428571Y-125678571D01*
X166071428Y-125678571D01*
X165928571Y-125607142D01*
X165857142Y-125535714D01*
X165785714Y-125392857D01*
X165785714Y-125250000D01*
X165857142Y-125107142D01*
X165928571Y-125035714D01*
X166071428Y-124964285D01*
X166357142Y-124892857D01*
X166500000Y-124821428D01*
X166571428Y-124750000D01*
X166642857Y-124607142D01*
X166642857Y-124464285D01*
X166571428Y-124321428D01*
X166500000Y-124250000D01*
X166357142Y-124178571D01*
X166000000Y-124178571D01*
X165785714Y-124250000D01*
X164642857Y-124892857D02*
X164428571Y-124964285D01*
X164357142Y-125035714D01*
X164285714Y-125178571D01*
X164285714Y-125392857D01*
X164357142Y-125535714D01*
X164428571Y-125607142D01*
X164571428Y-125678571D01*
X165142857Y-125678571D01*
X165142857Y-124178571D01*
X164642857Y-124178571D01*
X164500000Y-124250000D01*
X164428571Y-124321428D01*
X164357142Y-124464285D01*
X164357142Y-124607142D01*
X164428571Y-124750000D01*
X164500000Y-124821428D01*
X164642857Y-124892857D01*
X165142857Y-124892857D01*
X163642857Y-125678571D02*
X163642857Y-124678571D01*
X163642857Y-124178571D02*
X163714285Y-124250000D01*
X163642857Y-124321428D01*
X163571428Y-124250000D01*
X163642857Y-124178571D01*
X163642857Y-124321428D01*
X163071428Y-124178571D02*
X162071428Y-124178571D01*
X163071428Y-125678571D01*
X162071428Y-125678571D01*
X161571428Y-125607142D02*
X161357142Y-125678571D01*
X161000000Y-125678571D01*
X160857142Y-125607142D01*
X160785714Y-125535714D01*
X160714285Y-125392857D01*
X160714285Y-125250000D01*
X160785714Y-125107142D01*
X160857142Y-125035714D01*
X161000000Y-124964285D01*
X161285714Y-124892857D01*
X161428571Y-124821428D01*
X161500000Y-124750000D01*
X161571428Y-124607142D01*
X161571428Y-124464285D01*
X161500000Y-124321428D01*
X161428571Y-124250000D01*
X161285714Y-124178571D01*
X160928571Y-124178571D01*
X160714285Y-124250000D01*
X159571428Y-124892857D02*
X159357142Y-124964285D01*
X159285714Y-125035714D01*
X159214285Y-125178571D01*
X159214285Y-125392857D01*
X159285714Y-125535714D01*
X159357142Y-125607142D01*
X159500000Y-125678571D01*
X160071428Y-125678571D01*
X160071428Y-124178571D01*
X159571428Y-124178571D01*
X159428571Y-124250000D01*
X159357142Y-124321428D01*
X159285714Y-124464285D01*
X159285714Y-124607142D01*
X159357142Y-124750000D01*
X159428571Y-124821428D01*
X159571428Y-124892857D01*
X160071428Y-124892857D01*
X158571428Y-125678571D02*
X158571428Y-124178571D01*
X158428571Y-125107142D02*
X158000000Y-125678571D01*
X158000000Y-124678571D02*
X158571428Y-125250000D01*
X156714285Y-125607142D02*
X156857142Y-125678571D01*
X157142857Y-125678571D01*
X157285714Y-125607142D01*
X157357142Y-125535714D01*
X157428571Y-125392857D01*
X157428571Y-124964285D01*
X157357142Y-124821428D01*
X157285714Y-124750000D01*
X157142857Y-124678571D01*
X156857142Y-124678571D01*
X156714285Y-124750000D01*
X156071428Y-125678571D02*
X156071428Y-124678571D01*
X156071428Y-124821428D02*
X156000000Y-124750000D01*
X155857142Y-124678571D01*
X155642857Y-124678571D01*
X155500000Y-124750000D01*
X155428571Y-124892857D01*
X155428571Y-125678571D01*
X155428571Y-124892857D02*
X155357142Y-124750000D01*
X155214285Y-124678571D01*
X155000000Y-124678571D01*
X154857142Y-124750000D01*
X154785714Y-124892857D01*
X154785714Y-125678571D01*
X153571428Y-124892857D02*
X154071428Y-124892857D01*
X154071428Y-125678571D02*
X154071428Y-124178571D01*
X153357142Y-124178571D01*
X152785714Y-124678571D02*
X152785714Y-125678571D01*
X152785714Y-124821428D02*
X152714285Y-124750000D01*
X152571428Y-124678571D01*
X152357142Y-124678571D01*
X152214285Y-124750000D01*
X152142857Y-124892857D01*
X152142857Y-125678571D01*
X151428571Y-125678571D02*
X151428571Y-124178571D01*
X151428571Y-124750000D02*
X151285714Y-124678571D01*
X151000000Y-124678571D01*
X150857142Y-124750000D01*
X150785714Y-124821428D01*
X150714285Y-124964285D01*
X150714285Y-125392857D01*
X150785714Y-125535714D01*
X150857142Y-125607142D01*
X151000000Y-125678571D01*
X151285714Y-125678571D01*
X151428571Y-125607142D01*
X150142857Y-124321428D02*
X150071428Y-124250000D01*
X149928571Y-124178571D01*
X149571428Y-124178571D01*
X149428571Y-124250000D01*
X149357142Y-124321428D01*
X149285714Y-124464285D01*
X149285714Y-124607142D01*
X149357142Y-124821428D01*
X150214285Y-125678571D01*
X149285714Y-125678571D01*
X147928571Y-124178571D02*
X148642857Y-124178571D01*
X148714285Y-124892857D01*
X148642857Y-124821428D01*
X148500000Y-124750000D01*
X148142857Y-124750000D01*
X148000000Y-124821428D01*
X147928571Y-124892857D01*
X147857142Y-125035714D01*
X147857142Y-125392857D01*
X147928571Y-125535714D01*
X148000000Y-125607142D01*
X148142857Y-125678571D01*
X148500000Y-125678571D01*
X148642857Y-125607142D01*
X148714285Y-125535714D01*
X147357142Y-124678571D02*
X146571428Y-124678571D01*
X147357142Y-125678571D01*
X146571428Y-125678571D01*
D11*
G04 #@! TO.C,BT1*
X172611000Y-104140000D02*
X172611000Y-109140000D01*
X172061000Y-109690000D02*
G75*
G03X172611000Y-109140000I0J550000D01*
G01*
X172061000Y-103590000D02*
G75*
G02X172611000Y-104140000I0J-550000D01*
G01*
X172061000Y-109690000D02*
X169611000Y-109690000D01*
X169611000Y-103590000D02*
X172061000Y-103590000D01*
G04 #@! TO.C,R1*
X139090000Y-93385436D02*
X139090000Y-94589564D01*
X140910000Y-93385436D02*
X140910000Y-94589564D01*
G04 #@! TO.C,BT1*
D12*
X168382428Y-106747142D02*
X167239571Y-106747142D01*
X167811000Y-107318571D02*
X167811000Y-106175714D01*
G04 #@! TD*
M02*
