G04 #@! TF.GenerationSoftware,KiCad,Pcbnew,(5.0.2)-1*
G04 #@! TF.CreationDate,2020-01-21T20:41:25+01:00*
G04 #@! TF.ProjectId,dragon,64726167-6f6e-42e6-9b69-6361645f7063,rev?*
G04 #@! TF.SameCoordinates,Original*
G04 #@! TF.FileFunction,Soldermask,Bot*
G04 #@! TF.FilePolarity,Negative*
%FSLAX46Y46*%
G04 Gerber Fmt 4.6, Leading zero omitted, Abs format (unit mm)*
G04 Created by KiCad (PCBNEW (5.0.2)-1) date 1/21/2020 8:41:25 PM*
%MOMM*%
%LPD*%
G01*
G04 APERTURE LIST*
%ADD10C,0.100000*%
G04 APERTURE END LIST*
D10*
G36*
X172112000Y-108191000D02*
X169010000Y-108191000D01*
X169010000Y-105089000D01*
X172112000Y-105089000D01*
X172112000Y-108191000D01*
X172112000Y-108191000D01*
G37*
G36*
X150423527Y-105128736D02*
X150523410Y-105148604D01*
X150805674Y-105265521D01*
X151059705Y-105435259D01*
X151275741Y-105651295D01*
X151445479Y-105905326D01*
X151562396Y-106187590D01*
X151622000Y-106487240D01*
X151622000Y-106792760D01*
X151562396Y-107092410D01*
X151445479Y-107374674D01*
X151275741Y-107628705D01*
X151059705Y-107844741D01*
X150805674Y-108014479D01*
X150523410Y-108131396D01*
X150423527Y-108151264D01*
X150223762Y-108191000D01*
X149918238Y-108191000D01*
X149718473Y-108151264D01*
X149618590Y-108131396D01*
X149336326Y-108014479D01*
X149082295Y-107844741D01*
X148866259Y-107628705D01*
X148696521Y-107374674D01*
X148579604Y-107092410D01*
X148520000Y-106792760D01*
X148520000Y-106487240D01*
X148579604Y-106187590D01*
X148696521Y-105905326D01*
X148866259Y-105651295D01*
X149082295Y-105435259D01*
X149336326Y-105265521D01*
X149618590Y-105148604D01*
X149718473Y-105128736D01*
X149918238Y-105089000D01*
X150223762Y-105089000D01*
X150423527Y-105128736D01*
X150423527Y-105128736D01*
G37*
G36*
X140775562Y-94715681D02*
X140810477Y-94726273D01*
X140842665Y-94743478D01*
X140870873Y-94766627D01*
X140894022Y-94794835D01*
X140911227Y-94827023D01*
X140921819Y-94861938D01*
X140926000Y-94904395D01*
X140926000Y-96045605D01*
X140921819Y-96088062D01*
X140911227Y-96122977D01*
X140894022Y-96155165D01*
X140870873Y-96183373D01*
X140842665Y-96206522D01*
X140810477Y-96223727D01*
X140775562Y-96234319D01*
X140733105Y-96238500D01*
X139266895Y-96238500D01*
X139224438Y-96234319D01*
X139189523Y-96223727D01*
X139157335Y-96206522D01*
X139129127Y-96183373D01*
X139105978Y-96155165D01*
X139088773Y-96122977D01*
X139078181Y-96088062D01*
X139074000Y-96045605D01*
X139074000Y-94904395D01*
X139078181Y-94861938D01*
X139088773Y-94827023D01*
X139105978Y-94794835D01*
X139129127Y-94766627D01*
X139157335Y-94743478D01*
X139189523Y-94726273D01*
X139224438Y-94715681D01*
X139266895Y-94711500D01*
X140733105Y-94711500D01*
X140775562Y-94715681D01*
X140775562Y-94715681D01*
G37*
G36*
X140775562Y-91740681D02*
X140810477Y-91751273D01*
X140842665Y-91768478D01*
X140870873Y-91791627D01*
X140894022Y-91819835D01*
X140911227Y-91852023D01*
X140921819Y-91886938D01*
X140926000Y-91929395D01*
X140926000Y-93070605D01*
X140921819Y-93113062D01*
X140911227Y-93147977D01*
X140894022Y-93180165D01*
X140870873Y-93208373D01*
X140842665Y-93231522D01*
X140810477Y-93248727D01*
X140775562Y-93259319D01*
X140733105Y-93263500D01*
X139266895Y-93263500D01*
X139224438Y-93259319D01*
X139189523Y-93248727D01*
X139157335Y-93231522D01*
X139129127Y-93208373D01*
X139105978Y-93180165D01*
X139088773Y-93147977D01*
X139078181Y-93113062D01*
X139074000Y-93070605D01*
X139074000Y-91929395D01*
X139078181Y-91886938D01*
X139088773Y-91852023D01*
X139105978Y-91819835D01*
X139129127Y-91791627D01*
X139157335Y-91768478D01*
X139189523Y-91751273D01*
X139224438Y-91740681D01*
X139266895Y-91736500D01*
X140733105Y-91736500D01*
X140775562Y-91740681D01*
X140775562Y-91740681D01*
G37*
G36*
X160744096Y-77547033D02*
X160744098Y-77547034D01*
X160744099Y-77547034D01*
X161208352Y-77739333D01*
X161624284Y-78017250D01*
X161626171Y-78018511D01*
X161981489Y-78373829D01*
X161981491Y-78373832D01*
X162260667Y-78791648D01*
X162452966Y-79255901D01*
X162551000Y-79748748D01*
X162551000Y-80251252D01*
X162452966Y-80744099D01*
X162260667Y-81208352D01*
X161982750Y-81624284D01*
X161981489Y-81626171D01*
X161626171Y-81981489D01*
X161626168Y-81981491D01*
X161208352Y-82260667D01*
X160744099Y-82452966D01*
X160744098Y-82452966D01*
X160744096Y-82452967D01*
X160251253Y-82551000D01*
X159748747Y-82551000D01*
X159255904Y-82452967D01*
X159255902Y-82452966D01*
X159255901Y-82452966D01*
X158791648Y-82260667D01*
X158373832Y-81981491D01*
X158373829Y-81981489D01*
X158018511Y-81626171D01*
X158017250Y-81624284D01*
X157739333Y-81208352D01*
X157547034Y-80744099D01*
X157449000Y-80251252D01*
X157449000Y-79748748D01*
X157547034Y-79255901D01*
X157739333Y-78791648D01*
X158018509Y-78373832D01*
X158018511Y-78373829D01*
X158373829Y-78018511D01*
X158375716Y-78017250D01*
X158791648Y-77739333D01*
X159255901Y-77547034D01*
X159255902Y-77547034D01*
X159255904Y-77547033D01*
X159748747Y-77449000D01*
X160251253Y-77449000D01*
X160744096Y-77547033D01*
X160744096Y-77547033D01*
G37*
M02*
