G04 #@! TF.GenerationSoftware,KiCad,Pcbnew,(5.0.2)-1*
G04 #@! TF.CreationDate,2020-01-21T20:41:25+01:00*
G04 #@! TF.ProjectId,dragon,64726167-6f6e-42e6-9b69-6361645f7063,rev?*
G04 #@! TF.SameCoordinates,Original*
G04 #@! TF.FileFunction,Copper,L1,Top*
G04 #@! TF.FilePolarity,Positive*
%FSLAX46Y46*%
G04 Gerber Fmt 4.6, Leading zero omitted, Abs format (unit mm)*
G04 Created by KiCad (PCBNEW (5.0.2)-1) date 1/21/2020 8:41:25 PM*
%MOMM*%
%LPD*%
G01*
G04 APERTURE LIST*
G04 #@! TA.AperFunction,Conductor*
%ADD10C,0.100000*%
G04 #@! TD*
G04 #@! TA.AperFunction,SMDPad,CuDef*
%ADD11C,1.425000*%
G04 #@! TD*
G04 #@! TA.AperFunction,ComponentPad*
%ADD12C,3.000000*%
G04 #@! TD*
G04 #@! TA.AperFunction,ComponentPad*
%ADD13R,3.000000X3.000000*%
G04 #@! TD*
G04 #@! TA.AperFunction,ViaPad*
%ADD14C,0.800000*%
G04 #@! TD*
G04 #@! TA.AperFunction,Conductor*
%ADD15C,0.500000*%
G04 #@! TD*
G04 #@! TA.AperFunction,Conductor*
%ADD16C,0.254000*%
G04 #@! TD*
G04 APERTURE END LIST*
D10*
G04 #@! TO.N,Net-(D1-Pad2)*
G04 #@! TO.C,D1*
G36*
X166034991Y-88626125D02*
X166059393Y-88628663D01*
X166083429Y-88633580D01*
X166106867Y-88640830D01*
X166976082Y-88957198D01*
X166998697Y-88966710D01*
X167020270Y-88978393D01*
X167040595Y-88992134D01*
X167059474Y-89007802D01*
X167076728Y-89025244D01*
X167092188Y-89044294D01*
X167105707Y-89064767D01*
X167117154Y-89086466D01*
X167126419Y-89109184D01*
X167133412Y-89132699D01*
X167138068Y-89156788D01*
X167140339Y-89181216D01*
X167140205Y-89205750D01*
X167137667Y-89230152D01*
X167132750Y-89254188D01*
X167125500Y-89277626D01*
X166697975Y-90452242D01*
X166688463Y-90474857D01*
X166676780Y-90496430D01*
X166663039Y-90516755D01*
X166647371Y-90535635D01*
X166629929Y-90552888D01*
X166610879Y-90568348D01*
X166590406Y-90581867D01*
X166568707Y-90593314D01*
X166545989Y-90602579D01*
X166522474Y-90609573D01*
X166498385Y-90614228D01*
X166473957Y-90616499D01*
X166449423Y-90616365D01*
X166425021Y-90613827D01*
X166400985Y-90608910D01*
X166377547Y-90601660D01*
X165508332Y-90285292D01*
X165485717Y-90275780D01*
X165464144Y-90264097D01*
X165443819Y-90250356D01*
X165424940Y-90234688D01*
X165407686Y-90217246D01*
X165392226Y-90198196D01*
X165378707Y-90177723D01*
X165367260Y-90156024D01*
X165357995Y-90133306D01*
X165351002Y-90109791D01*
X165346346Y-90085702D01*
X165344075Y-90061274D01*
X165344209Y-90036740D01*
X165346747Y-90012338D01*
X165351664Y-89988302D01*
X165358914Y-89964864D01*
X165786439Y-88790248D01*
X165795951Y-88767633D01*
X165807634Y-88746060D01*
X165821375Y-88725735D01*
X165837043Y-88706855D01*
X165854485Y-88689602D01*
X165873535Y-88674142D01*
X165894008Y-88660623D01*
X165915707Y-88649176D01*
X165938425Y-88639911D01*
X165961940Y-88632917D01*
X165986029Y-88628262D01*
X166010457Y-88625991D01*
X166034991Y-88626125D01*
X166034991Y-88626125D01*
G37*
D11*
G04 #@! TD*
G04 #@! TO.P,D1,2*
G04 #@! TO.N,Net-(D1-Pad2)*
X166242207Y-89621245D03*
D10*
G04 #@! TO.N,Net-(BT1-Pad2)*
G04 #@! TO.C,D1*
G36*
X168830577Y-89643635D02*
X168854979Y-89646173D01*
X168879015Y-89651090D01*
X168902453Y-89658340D01*
X169771668Y-89974708D01*
X169794283Y-89984220D01*
X169815856Y-89995903D01*
X169836181Y-90009644D01*
X169855060Y-90025312D01*
X169872314Y-90042754D01*
X169887774Y-90061804D01*
X169901293Y-90082277D01*
X169912740Y-90103976D01*
X169922005Y-90126694D01*
X169928998Y-90150209D01*
X169933654Y-90174298D01*
X169935925Y-90198726D01*
X169935791Y-90223260D01*
X169933253Y-90247662D01*
X169928336Y-90271698D01*
X169921086Y-90295136D01*
X169493561Y-91469752D01*
X169484049Y-91492367D01*
X169472366Y-91513940D01*
X169458625Y-91534265D01*
X169442957Y-91553145D01*
X169425515Y-91570398D01*
X169406465Y-91585858D01*
X169385992Y-91599377D01*
X169364293Y-91610824D01*
X169341575Y-91620089D01*
X169318060Y-91627083D01*
X169293971Y-91631738D01*
X169269543Y-91634009D01*
X169245009Y-91633875D01*
X169220607Y-91631337D01*
X169196571Y-91626420D01*
X169173133Y-91619170D01*
X168303918Y-91302802D01*
X168281303Y-91293290D01*
X168259730Y-91281607D01*
X168239405Y-91267866D01*
X168220526Y-91252198D01*
X168203272Y-91234756D01*
X168187812Y-91215706D01*
X168174293Y-91195233D01*
X168162846Y-91173534D01*
X168153581Y-91150816D01*
X168146588Y-91127301D01*
X168141932Y-91103212D01*
X168139661Y-91078784D01*
X168139795Y-91054250D01*
X168142333Y-91029848D01*
X168147250Y-91005812D01*
X168154500Y-90982374D01*
X168582025Y-89807758D01*
X168591537Y-89785143D01*
X168603220Y-89763570D01*
X168616961Y-89743245D01*
X168632629Y-89724365D01*
X168650071Y-89707112D01*
X168669121Y-89691652D01*
X168689594Y-89678133D01*
X168711293Y-89666686D01*
X168734011Y-89657421D01*
X168757526Y-89650427D01*
X168781615Y-89645772D01*
X168806043Y-89643501D01*
X168830577Y-89643635D01*
X168830577Y-89643635D01*
G37*
D11*
G04 #@! TD*
G04 #@! TO.P,D1,1*
G04 #@! TO.N,Net-(BT1-Pad2)*
X169037793Y-90638755D03*
D12*
G04 #@! TO.P,BT1,2*
G04 #@! TO.N,Net-(BT1-Pad2)*
X150071000Y-106640000D03*
D13*
G04 #@! TO.P,BT1,1*
G04 #@! TO.N,Net-(BT1-Pad1)*
X170561000Y-106640000D03*
G04 #@! TD*
D14*
G04 #@! TO.N,Net-(BT1-Pad2)*
X170180000Y-91400000D03*
G04 #@! TO.N,Net-(D1-Pad2)*
X165100000Y-88860000D03*
G04 #@! TD*
D15*
G04 #@! TO.N,Net-(BT1-Pad2)*
X169418755Y-90638755D02*
X170180000Y-91400000D01*
X169037793Y-90638755D02*
X169418755Y-90638755D01*
G04 #@! TO.N,Net-(D1-Pad2)*
X165480962Y-88860000D02*
X166242207Y-89621245D01*
X165100000Y-88860000D02*
X165480962Y-88860000D01*
G04 #@! TD*
D16*
G04 #@! TO.N,Net-(D1-Pad2)*
G36*
X161992168Y-75777827D02*
X164076380Y-75995048D01*
X166139728Y-76360729D01*
X168171649Y-76872998D01*
X170161745Y-77529233D01*
X172099829Y-78326076D01*
X173975980Y-79259447D01*
X175780596Y-80324569D01*
X177504441Y-81515991D01*
X179138689Y-82827615D01*
X180674978Y-84252726D01*
X182105444Y-85784031D01*
X183422764Y-87413692D01*
X184620196Y-89133367D01*
X185691611Y-90934254D01*
X186631526Y-92807136D01*
X187435128Y-94742426D01*
X188098306Y-96730219D01*
X188617665Y-98760340D01*
X188990546Y-100822399D01*
X189215041Y-102905840D01*
X189290000Y-105000000D01*
X189241432Y-106686050D01*
X189046048Y-108772423D01*
X188701995Y-110839487D01*
X188211032Y-112876662D01*
X187575672Y-114873520D01*
X186799169Y-116819842D01*
X185885495Y-118705664D01*
X184839329Y-120521335D01*
X183666024Y-122257561D01*
X182371586Y-123905456D01*
X180962640Y-125456584D01*
X179446399Y-126903006D01*
X177830622Y-128237319D01*
X176123581Y-129452694D01*
X174334012Y-130542909D01*
X172471075Y-131502384D01*
X170544307Y-132326209D01*
X168563567Y-133010166D01*
X166538996Y-133550755D01*
X164480955Y-133945209D01*
X162399979Y-134191509D01*
X160306719Y-134288394D01*
X158211888Y-134235368D01*
X156126210Y-134032703D01*
X154060360Y-133681436D01*
X152024912Y-133183365D01*
X150030283Y-132541039D01*
X148086684Y-131757746D01*
X146204062Y-130837496D01*
X144392054Y-129784998D01*
X142659934Y-128605639D01*
X141016568Y-127305457D01*
X139470368Y-125891106D01*
X138029247Y-124369825D01*
X136700582Y-122749400D01*
X135491173Y-121038127D01*
X134407212Y-119244763D01*
X133454245Y-117378489D01*
X132637151Y-115448856D01*
X131960112Y-113465741D01*
X131426593Y-111439295D01*
X131039326Y-109379890D01*
X130800291Y-107298067D01*
X130753965Y-106215322D01*
X147936000Y-106215322D01*
X147936000Y-107064678D01*
X148261034Y-107849380D01*
X148861620Y-108449966D01*
X149646322Y-108775000D01*
X150495678Y-108775000D01*
X151280380Y-108449966D01*
X151880966Y-107849380D01*
X152206000Y-107064678D01*
X152206000Y-106215322D01*
X151880966Y-105430620D01*
X151590346Y-105140000D01*
X168413560Y-105140000D01*
X168413560Y-108140000D01*
X168462843Y-108387765D01*
X168603191Y-108597809D01*
X168813235Y-108738157D01*
X169061000Y-108787440D01*
X172061000Y-108787440D01*
X172308765Y-108738157D01*
X172518809Y-108597809D01*
X172659157Y-108387765D01*
X172708440Y-108140000D01*
X172708440Y-105140000D01*
X172659157Y-104892235D01*
X172518809Y-104682191D01*
X172308765Y-104541843D01*
X172061000Y-104492560D01*
X169061000Y-104492560D01*
X168813235Y-104541843D01*
X168603191Y-104682191D01*
X168462843Y-104892235D01*
X168413560Y-105140000D01*
X151590346Y-105140000D01*
X151280380Y-104830034D01*
X150495678Y-104505000D01*
X149646322Y-104505000D01*
X148861620Y-104830034D01*
X148261034Y-105430620D01*
X147936000Y-106215322D01*
X130753965Y-106215322D01*
X130710714Y-105204481D01*
X130771052Y-103109849D01*
X130980996Y-101024891D01*
X131339472Y-98960279D01*
X131844645Y-96926582D01*
X132493929Y-94934208D01*
X133284002Y-92993354D01*
X134210818Y-91113956D01*
X134803755Y-90101296D01*
X164633503Y-90101296D01*
X164644522Y-90353675D01*
X164751284Y-90582625D01*
X164937534Y-90753291D01*
X165457239Y-90942449D01*
X165474412Y-90934441D01*
X165899393Y-90934441D01*
X165994274Y-91137913D01*
X166513979Y-91327070D01*
X166766357Y-91316051D01*
X166995308Y-91209291D01*
X167089017Y-91107025D01*
X167492837Y-91107025D01*
X167576066Y-91447154D01*
X167783122Y-91729541D01*
X168082481Y-91911197D01*
X168951696Y-92227565D01*
X169297784Y-92280833D01*
X169538274Y-92221985D01*
X169593720Y-92277431D01*
X169974126Y-92435000D01*
X170385874Y-92435000D01*
X170766280Y-92277431D01*
X171057431Y-91986280D01*
X171215000Y-91605874D01*
X171215000Y-91194126D01*
X171057431Y-90813720D01*
X170766280Y-90522569D01*
X170542805Y-90430003D01*
X170582749Y-90170485D01*
X170499520Y-89830356D01*
X170292464Y-89547969D01*
X169993105Y-89366313D01*
X169123890Y-89049945D01*
X168777802Y-88996677D01*
X168437673Y-89079906D01*
X168155286Y-89286961D01*
X167973630Y-89586321D01*
X167546105Y-90760937D01*
X167492837Y-91107025D01*
X167089017Y-91107025D01*
X167165975Y-91023041D01*
X167252375Y-90785657D01*
X167410711Y-90350634D01*
X167315830Y-90147162D01*
X166318111Y-89784023D01*
X165899393Y-90934441D01*
X165474412Y-90934441D01*
X165660711Y-90847568D01*
X166079429Y-89697149D01*
X165662340Y-89545341D01*
X166404985Y-89545341D01*
X167402703Y-89908480D01*
X167606175Y-89813600D01*
X167764510Y-89378578D01*
X167850911Y-89141194D01*
X167839892Y-88888815D01*
X167733130Y-88659865D01*
X167546880Y-88489199D01*
X167027175Y-88300041D01*
X166823703Y-88394922D01*
X166404985Y-89545341D01*
X165662340Y-89545341D01*
X165081711Y-89334010D01*
X164878239Y-89428890D01*
X164719904Y-89863912D01*
X164633503Y-90101296D01*
X134803755Y-90101296D01*
X135269635Y-89305633D01*
X135553484Y-88891856D01*
X165073703Y-88891856D01*
X165168584Y-89095328D01*
X166166303Y-89458467D01*
X166585021Y-88308049D01*
X166490140Y-88104577D01*
X165970435Y-87915420D01*
X165718057Y-87926439D01*
X165489106Y-88033199D01*
X165318439Y-88219449D01*
X165232039Y-88456833D01*
X165073703Y-88891856D01*
X135553484Y-88891856D01*
X136455033Y-87577641D01*
X137760943Y-85938823D01*
X139180683Y-84397569D01*
X140706986Y-82961767D01*
X142332038Y-81638767D01*
X144047523Y-80435339D01*
X145813365Y-79376410D01*
X156865000Y-79376410D01*
X156865000Y-80623590D01*
X157342276Y-81775835D01*
X158224165Y-82657724D01*
X159376410Y-83135000D01*
X160623590Y-83135000D01*
X161775835Y-82657724D01*
X162657724Y-81775835D01*
X163135000Y-80623590D01*
X163135000Y-79376410D01*
X162657724Y-78224165D01*
X161775835Y-77342276D01*
X160623590Y-76865000D01*
X159376410Y-76865000D01*
X158224165Y-77342276D01*
X157342276Y-78224165D01*
X156865000Y-79376410D01*
X145813365Y-79376410D01*
X145844659Y-79357644D01*
X147714249Y-78411198D01*
X149646722Y-77600844D01*
X151632188Y-76930732D01*
X153660484Y-76404290D01*
X155721228Y-76024213D01*
X157803873Y-75792447D01*
X159897759Y-75710178D01*
X161992168Y-75777827D01*
X161992168Y-75777827D01*
G37*
X161992168Y-75777827D02*
X164076380Y-75995048D01*
X166139728Y-76360729D01*
X168171649Y-76872998D01*
X170161745Y-77529233D01*
X172099829Y-78326076D01*
X173975980Y-79259447D01*
X175780596Y-80324569D01*
X177504441Y-81515991D01*
X179138689Y-82827615D01*
X180674978Y-84252726D01*
X182105444Y-85784031D01*
X183422764Y-87413692D01*
X184620196Y-89133367D01*
X185691611Y-90934254D01*
X186631526Y-92807136D01*
X187435128Y-94742426D01*
X188098306Y-96730219D01*
X188617665Y-98760340D01*
X188990546Y-100822399D01*
X189215041Y-102905840D01*
X189290000Y-105000000D01*
X189241432Y-106686050D01*
X189046048Y-108772423D01*
X188701995Y-110839487D01*
X188211032Y-112876662D01*
X187575672Y-114873520D01*
X186799169Y-116819842D01*
X185885495Y-118705664D01*
X184839329Y-120521335D01*
X183666024Y-122257561D01*
X182371586Y-123905456D01*
X180962640Y-125456584D01*
X179446399Y-126903006D01*
X177830622Y-128237319D01*
X176123581Y-129452694D01*
X174334012Y-130542909D01*
X172471075Y-131502384D01*
X170544307Y-132326209D01*
X168563567Y-133010166D01*
X166538996Y-133550755D01*
X164480955Y-133945209D01*
X162399979Y-134191509D01*
X160306719Y-134288394D01*
X158211888Y-134235368D01*
X156126210Y-134032703D01*
X154060360Y-133681436D01*
X152024912Y-133183365D01*
X150030283Y-132541039D01*
X148086684Y-131757746D01*
X146204062Y-130837496D01*
X144392054Y-129784998D01*
X142659934Y-128605639D01*
X141016568Y-127305457D01*
X139470368Y-125891106D01*
X138029247Y-124369825D01*
X136700582Y-122749400D01*
X135491173Y-121038127D01*
X134407212Y-119244763D01*
X133454245Y-117378489D01*
X132637151Y-115448856D01*
X131960112Y-113465741D01*
X131426593Y-111439295D01*
X131039326Y-109379890D01*
X130800291Y-107298067D01*
X130753965Y-106215322D01*
X147936000Y-106215322D01*
X147936000Y-107064678D01*
X148261034Y-107849380D01*
X148861620Y-108449966D01*
X149646322Y-108775000D01*
X150495678Y-108775000D01*
X151280380Y-108449966D01*
X151880966Y-107849380D01*
X152206000Y-107064678D01*
X152206000Y-106215322D01*
X151880966Y-105430620D01*
X151590346Y-105140000D01*
X168413560Y-105140000D01*
X168413560Y-108140000D01*
X168462843Y-108387765D01*
X168603191Y-108597809D01*
X168813235Y-108738157D01*
X169061000Y-108787440D01*
X172061000Y-108787440D01*
X172308765Y-108738157D01*
X172518809Y-108597809D01*
X172659157Y-108387765D01*
X172708440Y-108140000D01*
X172708440Y-105140000D01*
X172659157Y-104892235D01*
X172518809Y-104682191D01*
X172308765Y-104541843D01*
X172061000Y-104492560D01*
X169061000Y-104492560D01*
X168813235Y-104541843D01*
X168603191Y-104682191D01*
X168462843Y-104892235D01*
X168413560Y-105140000D01*
X151590346Y-105140000D01*
X151280380Y-104830034D01*
X150495678Y-104505000D01*
X149646322Y-104505000D01*
X148861620Y-104830034D01*
X148261034Y-105430620D01*
X147936000Y-106215322D01*
X130753965Y-106215322D01*
X130710714Y-105204481D01*
X130771052Y-103109849D01*
X130980996Y-101024891D01*
X131339472Y-98960279D01*
X131844645Y-96926582D01*
X132493929Y-94934208D01*
X133284002Y-92993354D01*
X134210818Y-91113956D01*
X134803755Y-90101296D01*
X164633503Y-90101296D01*
X164644522Y-90353675D01*
X164751284Y-90582625D01*
X164937534Y-90753291D01*
X165457239Y-90942449D01*
X165474412Y-90934441D01*
X165899393Y-90934441D01*
X165994274Y-91137913D01*
X166513979Y-91327070D01*
X166766357Y-91316051D01*
X166995308Y-91209291D01*
X167089017Y-91107025D01*
X167492837Y-91107025D01*
X167576066Y-91447154D01*
X167783122Y-91729541D01*
X168082481Y-91911197D01*
X168951696Y-92227565D01*
X169297784Y-92280833D01*
X169538274Y-92221985D01*
X169593720Y-92277431D01*
X169974126Y-92435000D01*
X170385874Y-92435000D01*
X170766280Y-92277431D01*
X171057431Y-91986280D01*
X171215000Y-91605874D01*
X171215000Y-91194126D01*
X171057431Y-90813720D01*
X170766280Y-90522569D01*
X170542805Y-90430003D01*
X170582749Y-90170485D01*
X170499520Y-89830356D01*
X170292464Y-89547969D01*
X169993105Y-89366313D01*
X169123890Y-89049945D01*
X168777802Y-88996677D01*
X168437673Y-89079906D01*
X168155286Y-89286961D01*
X167973630Y-89586321D01*
X167546105Y-90760937D01*
X167492837Y-91107025D01*
X167089017Y-91107025D01*
X167165975Y-91023041D01*
X167252375Y-90785657D01*
X167410711Y-90350634D01*
X167315830Y-90147162D01*
X166318111Y-89784023D01*
X165899393Y-90934441D01*
X165474412Y-90934441D01*
X165660711Y-90847568D01*
X166079429Y-89697149D01*
X165662340Y-89545341D01*
X166404985Y-89545341D01*
X167402703Y-89908480D01*
X167606175Y-89813600D01*
X167764510Y-89378578D01*
X167850911Y-89141194D01*
X167839892Y-88888815D01*
X167733130Y-88659865D01*
X167546880Y-88489199D01*
X167027175Y-88300041D01*
X166823703Y-88394922D01*
X166404985Y-89545341D01*
X165662340Y-89545341D01*
X165081711Y-89334010D01*
X164878239Y-89428890D01*
X164719904Y-89863912D01*
X164633503Y-90101296D01*
X134803755Y-90101296D01*
X135269635Y-89305633D01*
X135553484Y-88891856D01*
X165073703Y-88891856D01*
X165168584Y-89095328D01*
X166166303Y-89458467D01*
X166585021Y-88308049D01*
X166490140Y-88104577D01*
X165970435Y-87915420D01*
X165718057Y-87926439D01*
X165489106Y-88033199D01*
X165318439Y-88219449D01*
X165232039Y-88456833D01*
X165073703Y-88891856D01*
X135553484Y-88891856D01*
X136455033Y-87577641D01*
X137760943Y-85938823D01*
X139180683Y-84397569D01*
X140706986Y-82961767D01*
X142332038Y-81638767D01*
X144047523Y-80435339D01*
X145813365Y-79376410D01*
X156865000Y-79376410D01*
X156865000Y-80623590D01*
X157342276Y-81775835D01*
X158224165Y-82657724D01*
X159376410Y-83135000D01*
X160623590Y-83135000D01*
X161775835Y-82657724D01*
X162657724Y-81775835D01*
X163135000Y-80623590D01*
X163135000Y-79376410D01*
X162657724Y-78224165D01*
X161775835Y-77342276D01*
X160623590Y-76865000D01*
X159376410Y-76865000D01*
X158224165Y-77342276D01*
X157342276Y-78224165D01*
X156865000Y-79376410D01*
X145813365Y-79376410D01*
X145844659Y-79357644D01*
X147714249Y-78411198D01*
X149646722Y-77600844D01*
X151632188Y-76930732D01*
X153660484Y-76404290D01*
X155721228Y-76024213D01*
X157803873Y-75792447D01*
X159897759Y-75710178D01*
X161992168Y-75777827D01*
G04 #@! TD*
M02*
