G04 #@! TF.GenerationSoftware,KiCad,Pcbnew,(5.0.2)-1*
G04 #@! TF.CreationDate,2020-01-21T20:41:25+01:00*
G04 #@! TF.ProjectId,dragon,64726167-6f6e-42e6-9b69-6361645f7063,rev?*
G04 #@! TF.SameCoordinates,Original*
G04 #@! TF.FileFunction,Copper,L2,Bot*
G04 #@! TF.FilePolarity,Positive*
%FSLAX46Y46*%
G04 Gerber Fmt 4.6, Leading zero omitted, Abs format (unit mm)*
G04 Created by KiCad (PCBNEW (5.0.2)-1) date 1/21/2020 8:41:25 PM*
%MOMM*%
%LPD*%
G01*
G04 APERTURE LIST*
G04 #@! TA.AperFunction,Conductor*
%ADD10C,0.100000*%
G04 #@! TD*
G04 #@! TA.AperFunction,SMDPad,CuDef*
%ADD11C,1.425000*%
G04 #@! TD*
G04 #@! TA.AperFunction,ComponentPad*
%ADD12C,3.000000*%
G04 #@! TD*
G04 #@! TA.AperFunction,ComponentPad*
%ADD13R,3.000000X3.000000*%
G04 #@! TD*
G04 #@! TA.AperFunction,ViaPad*
%ADD14C,0.800000*%
G04 #@! TD*
G04 #@! TA.AperFunction,Conductor*
%ADD15C,0.500000*%
G04 #@! TD*
G04 #@! TA.AperFunction,Conductor*
%ADD16C,0.254000*%
G04 #@! TD*
G04 APERTURE END LIST*
D10*
G04 #@! TO.N,Net-(D1-Pad2)*
G04 #@! TO.C,R1*
G36*
X140649504Y-91788704D02*
X140673773Y-91792304D01*
X140697571Y-91798265D01*
X140720671Y-91806530D01*
X140742849Y-91817020D01*
X140763893Y-91829633D01*
X140783598Y-91844247D01*
X140801777Y-91860723D01*
X140818253Y-91878902D01*
X140832867Y-91898607D01*
X140845480Y-91919651D01*
X140855970Y-91941829D01*
X140864235Y-91964929D01*
X140870196Y-91988727D01*
X140873796Y-92012996D01*
X140875000Y-92037500D01*
X140875000Y-92962500D01*
X140873796Y-92987004D01*
X140870196Y-93011273D01*
X140864235Y-93035071D01*
X140855970Y-93058171D01*
X140845480Y-93080349D01*
X140832867Y-93101393D01*
X140818253Y-93121098D01*
X140801777Y-93139277D01*
X140783598Y-93155753D01*
X140763893Y-93170367D01*
X140742849Y-93182980D01*
X140720671Y-93193470D01*
X140697571Y-93201735D01*
X140673773Y-93207696D01*
X140649504Y-93211296D01*
X140625000Y-93212500D01*
X139375000Y-93212500D01*
X139350496Y-93211296D01*
X139326227Y-93207696D01*
X139302429Y-93201735D01*
X139279329Y-93193470D01*
X139257151Y-93182980D01*
X139236107Y-93170367D01*
X139216402Y-93155753D01*
X139198223Y-93139277D01*
X139181747Y-93121098D01*
X139167133Y-93101393D01*
X139154520Y-93080349D01*
X139144030Y-93058171D01*
X139135765Y-93035071D01*
X139129804Y-93011273D01*
X139126204Y-92987004D01*
X139125000Y-92962500D01*
X139125000Y-92037500D01*
X139126204Y-92012996D01*
X139129804Y-91988727D01*
X139135765Y-91964929D01*
X139144030Y-91941829D01*
X139154520Y-91919651D01*
X139167133Y-91898607D01*
X139181747Y-91878902D01*
X139198223Y-91860723D01*
X139216402Y-91844247D01*
X139236107Y-91829633D01*
X139257151Y-91817020D01*
X139279329Y-91806530D01*
X139302429Y-91798265D01*
X139326227Y-91792304D01*
X139350496Y-91788704D01*
X139375000Y-91787500D01*
X140625000Y-91787500D01*
X140649504Y-91788704D01*
X140649504Y-91788704D01*
G37*
D11*
G04 #@! TD*
G04 #@! TO.P,R1,1*
G04 #@! TO.N,Net-(D1-Pad2)*
X140000000Y-92500000D03*
D10*
G04 #@! TO.N,Net-(BT1-Pad1)*
G04 #@! TO.C,R1*
G36*
X140649504Y-94763704D02*
X140673773Y-94767304D01*
X140697571Y-94773265D01*
X140720671Y-94781530D01*
X140742849Y-94792020D01*
X140763893Y-94804633D01*
X140783598Y-94819247D01*
X140801777Y-94835723D01*
X140818253Y-94853902D01*
X140832867Y-94873607D01*
X140845480Y-94894651D01*
X140855970Y-94916829D01*
X140864235Y-94939929D01*
X140870196Y-94963727D01*
X140873796Y-94987996D01*
X140875000Y-95012500D01*
X140875000Y-95937500D01*
X140873796Y-95962004D01*
X140870196Y-95986273D01*
X140864235Y-96010071D01*
X140855970Y-96033171D01*
X140845480Y-96055349D01*
X140832867Y-96076393D01*
X140818253Y-96096098D01*
X140801777Y-96114277D01*
X140783598Y-96130753D01*
X140763893Y-96145367D01*
X140742849Y-96157980D01*
X140720671Y-96168470D01*
X140697571Y-96176735D01*
X140673773Y-96182696D01*
X140649504Y-96186296D01*
X140625000Y-96187500D01*
X139375000Y-96187500D01*
X139350496Y-96186296D01*
X139326227Y-96182696D01*
X139302429Y-96176735D01*
X139279329Y-96168470D01*
X139257151Y-96157980D01*
X139236107Y-96145367D01*
X139216402Y-96130753D01*
X139198223Y-96114277D01*
X139181747Y-96096098D01*
X139167133Y-96076393D01*
X139154520Y-96055349D01*
X139144030Y-96033171D01*
X139135765Y-96010071D01*
X139129804Y-95986273D01*
X139126204Y-95962004D01*
X139125000Y-95937500D01*
X139125000Y-95012500D01*
X139126204Y-94987996D01*
X139129804Y-94963727D01*
X139135765Y-94939929D01*
X139144030Y-94916829D01*
X139154520Y-94894651D01*
X139167133Y-94873607D01*
X139181747Y-94853902D01*
X139198223Y-94835723D01*
X139216402Y-94819247D01*
X139236107Y-94804633D01*
X139257151Y-94792020D01*
X139279329Y-94781530D01*
X139302429Y-94773265D01*
X139326227Y-94767304D01*
X139350496Y-94763704D01*
X139375000Y-94762500D01*
X140625000Y-94762500D01*
X140649504Y-94763704D01*
X140649504Y-94763704D01*
G37*
D11*
G04 #@! TD*
G04 #@! TO.P,R1,2*
G04 #@! TO.N,Net-(BT1-Pad1)*
X140000000Y-95475000D03*
D12*
G04 #@! TO.P,BT1,2*
G04 #@! TO.N,Net-(BT1-Pad2)*
X150071000Y-106640000D03*
D13*
G04 #@! TO.P,BT1,1*
G04 #@! TO.N,Net-(BT1-Pad1)*
X170561000Y-106640000D03*
G04 #@! TD*
D14*
G04 #@! TO.N,Net-(BT1-Pad2)*
X170180000Y-91400000D03*
G04 #@! TO.N,Net-(D1-Pad2)*
X165100000Y-88860000D03*
G04 #@! TD*
D15*
G04 #@! TO.N,Net-(BT1-Pad2)*
X170180000Y-91400000D02*
X170180000Y-91400000D01*
X175400000Y-96620000D02*
X170180000Y-91400000D01*
X175400000Y-116400000D02*
X175400000Y-96620000D01*
X157200000Y-116400000D02*
X175400000Y-116400000D01*
X150071000Y-106640000D02*
X150071000Y-109271000D01*
X150071000Y-109271000D02*
X157200000Y-116400000D01*
G04 #@! TO.N,Net-(BT1-Pad1)*
X143512500Y-98987500D02*
X140000000Y-95475000D01*
X157687500Y-98987500D02*
X143512500Y-98987500D01*
X170561000Y-106640000D02*
X165340000Y-106640000D01*
X165340000Y-106640000D02*
X157687500Y-98987500D01*
G04 #@! TO.N,Net-(D1-Pad2)*
X165100000Y-88860000D02*
X165100000Y-88860000D01*
X143640000Y-88860000D02*
X140000000Y-92500000D01*
X165100000Y-88860000D02*
X143640000Y-88860000D01*
G04 #@! TD*
D16*
G04 #@! TO.N,Net-(BT1-Pad2)*
G36*
X161992168Y-75777827D02*
X164076380Y-75995048D01*
X166139728Y-76360729D01*
X168171649Y-76872998D01*
X170161745Y-77529233D01*
X172099829Y-78326076D01*
X173975980Y-79259447D01*
X175780596Y-80324569D01*
X177504441Y-81515991D01*
X179138689Y-82827615D01*
X180674978Y-84252726D01*
X182105444Y-85784031D01*
X183422764Y-87413692D01*
X184620196Y-89133367D01*
X185691611Y-90934254D01*
X186631526Y-92807136D01*
X187435128Y-94742426D01*
X188098306Y-96730219D01*
X188617665Y-98760340D01*
X188990546Y-100822399D01*
X189215041Y-102905840D01*
X189290000Y-105000000D01*
X189241432Y-106686050D01*
X189046048Y-108772423D01*
X188701995Y-110839487D01*
X188211032Y-112876662D01*
X187575672Y-114873520D01*
X186799169Y-116819842D01*
X185885495Y-118705664D01*
X184839329Y-120521335D01*
X183666024Y-122257561D01*
X182371586Y-123905456D01*
X180962640Y-125456584D01*
X179446399Y-126903006D01*
X177830622Y-128237319D01*
X176123581Y-129452694D01*
X174334012Y-130542909D01*
X172471075Y-131502384D01*
X170544307Y-132326209D01*
X168563567Y-133010166D01*
X166538996Y-133550755D01*
X164480955Y-133945209D01*
X162399979Y-134191509D01*
X160306719Y-134288394D01*
X158211888Y-134235368D01*
X156126210Y-134032703D01*
X154060360Y-133681436D01*
X152024912Y-133183365D01*
X150030283Y-132541039D01*
X148086684Y-131757746D01*
X146204062Y-130837496D01*
X144392054Y-129784998D01*
X142659934Y-128605639D01*
X141016568Y-127305457D01*
X139470368Y-125891106D01*
X138029247Y-124369825D01*
X136700582Y-122749400D01*
X135491173Y-121038127D01*
X134407212Y-119244763D01*
X133454245Y-117378489D01*
X132637151Y-115448856D01*
X131960112Y-113465741D01*
X131426593Y-111439295D01*
X131039326Y-109379890D01*
X130898566Y-108153970D01*
X148736635Y-108153970D01*
X148896418Y-108472739D01*
X149687187Y-108782723D01*
X150536387Y-108766497D01*
X151245582Y-108472739D01*
X151405365Y-108153970D01*
X150071000Y-106819605D01*
X148736635Y-108153970D01*
X130898566Y-108153970D01*
X130800291Y-107298067D01*
X130755713Y-106256187D01*
X147928277Y-106256187D01*
X147944503Y-107105387D01*
X148238261Y-107814582D01*
X148557030Y-107974365D01*
X149891395Y-106640000D01*
X150250605Y-106640000D01*
X151584970Y-107974365D01*
X151903739Y-107814582D01*
X152213723Y-107023813D01*
X152197497Y-106174613D01*
X151903739Y-105465418D01*
X151584970Y-105305635D01*
X150250605Y-106640000D01*
X149891395Y-106640000D01*
X148557030Y-105305635D01*
X148238261Y-105465418D01*
X147928277Y-106256187D01*
X130755713Y-106256187D01*
X130710714Y-105204481D01*
X130712973Y-105126030D01*
X148736635Y-105126030D01*
X150071000Y-106460395D01*
X151405365Y-105126030D01*
X151245582Y-104807261D01*
X150454813Y-104497277D01*
X149605613Y-104513503D01*
X148896418Y-104807261D01*
X148736635Y-105126030D01*
X130712973Y-105126030D01*
X130771052Y-103109849D01*
X130980996Y-101024891D01*
X131339472Y-98960279D01*
X131844645Y-96926582D01*
X132468414Y-95012500D01*
X138477560Y-95012500D01*
X138477560Y-95937500D01*
X138545874Y-96280935D01*
X138740414Y-96572086D01*
X139031565Y-96766626D01*
X139375000Y-96834940D01*
X140108362Y-96834940D01*
X142825077Y-99551656D01*
X142874451Y-99625549D01*
X142948344Y-99674923D01*
X142948345Y-99674924D01*
X143059380Y-99749115D01*
X143167190Y-99821152D01*
X143425335Y-99872500D01*
X143425339Y-99872500D01*
X143512499Y-99889837D01*
X143599659Y-99872500D01*
X157320922Y-99872500D01*
X164652577Y-107204156D01*
X164701951Y-107278049D01*
X164775844Y-107327423D01*
X164775845Y-107327424D01*
X164886880Y-107401615D01*
X164994690Y-107473652D01*
X165252835Y-107525000D01*
X165252839Y-107525000D01*
X165339999Y-107542337D01*
X165427159Y-107525000D01*
X168413560Y-107525000D01*
X168413560Y-108140000D01*
X168462843Y-108387765D01*
X168603191Y-108597809D01*
X168813235Y-108738157D01*
X169061000Y-108787440D01*
X172061000Y-108787440D01*
X172308765Y-108738157D01*
X172518809Y-108597809D01*
X172659157Y-108387765D01*
X172708440Y-108140000D01*
X172708440Y-105140000D01*
X172659157Y-104892235D01*
X172518809Y-104682191D01*
X172308765Y-104541843D01*
X172061000Y-104492560D01*
X169061000Y-104492560D01*
X168813235Y-104541843D01*
X168603191Y-104682191D01*
X168462843Y-104892235D01*
X168413560Y-105140000D01*
X168413560Y-105755000D01*
X165706579Y-105755000D01*
X158374925Y-98423347D01*
X158325549Y-98349451D01*
X158032810Y-98153848D01*
X157774665Y-98102500D01*
X157774661Y-98102500D01*
X157687500Y-98085163D01*
X157600339Y-98102500D01*
X143879079Y-98102500D01*
X141522440Y-95745862D01*
X141522440Y-95012500D01*
X141454126Y-94669065D01*
X141259586Y-94377914D01*
X140968435Y-94183374D01*
X140625000Y-94115060D01*
X139375000Y-94115060D01*
X139031565Y-94183374D01*
X138740414Y-94377914D01*
X138545874Y-94669065D01*
X138477560Y-95012500D01*
X132468414Y-95012500D01*
X132493929Y-94934208D01*
X133284002Y-92993354D01*
X133755376Y-92037500D01*
X138477560Y-92037500D01*
X138477560Y-92962500D01*
X138545874Y-93305935D01*
X138740414Y-93597086D01*
X139031565Y-93791626D01*
X139375000Y-93859940D01*
X140625000Y-93859940D01*
X140968435Y-93791626D01*
X141259586Y-93597086D01*
X141454126Y-93305935D01*
X141522440Y-92962500D01*
X141522440Y-92229138D01*
X144006579Y-89745000D01*
X164531993Y-89745000D01*
X164894126Y-89895000D01*
X165305874Y-89895000D01*
X165686280Y-89737431D01*
X165977431Y-89446280D01*
X166135000Y-89065874D01*
X166135000Y-88654126D01*
X165977431Y-88273720D01*
X165686280Y-87982569D01*
X165305874Y-87825000D01*
X164894126Y-87825000D01*
X164531993Y-87975000D01*
X143727159Y-87975000D01*
X143639999Y-87957663D01*
X143552839Y-87975000D01*
X143552835Y-87975000D01*
X143294690Y-88026348D01*
X143294688Y-88026349D01*
X143294689Y-88026349D01*
X143075845Y-88172576D01*
X143075844Y-88172577D01*
X143001951Y-88221951D01*
X142952577Y-88295844D01*
X140108362Y-91140060D01*
X139375000Y-91140060D01*
X139031565Y-91208374D01*
X138740414Y-91402914D01*
X138545874Y-91694065D01*
X138477560Y-92037500D01*
X133755376Y-92037500D01*
X134210818Y-91113956D01*
X135269635Y-89305633D01*
X136455033Y-87577641D01*
X137760943Y-85938823D01*
X139180683Y-84397569D01*
X140706986Y-82961767D01*
X142332038Y-81638767D01*
X144047523Y-80435339D01*
X145813365Y-79376410D01*
X156865000Y-79376410D01*
X156865000Y-80623590D01*
X157342276Y-81775835D01*
X158224165Y-82657724D01*
X159376410Y-83135000D01*
X160623590Y-83135000D01*
X161775835Y-82657724D01*
X162657724Y-81775835D01*
X163135000Y-80623590D01*
X163135000Y-79376410D01*
X162657724Y-78224165D01*
X161775835Y-77342276D01*
X160623590Y-76865000D01*
X159376410Y-76865000D01*
X158224165Y-77342276D01*
X157342276Y-78224165D01*
X156865000Y-79376410D01*
X145813365Y-79376410D01*
X145844659Y-79357644D01*
X147714249Y-78411198D01*
X149646722Y-77600844D01*
X151632188Y-76930732D01*
X153660484Y-76404290D01*
X155721228Y-76024213D01*
X157803873Y-75792447D01*
X159897759Y-75710178D01*
X161992168Y-75777827D01*
X161992168Y-75777827D01*
G37*
X161992168Y-75777827D02*
X164076380Y-75995048D01*
X166139728Y-76360729D01*
X168171649Y-76872998D01*
X170161745Y-77529233D01*
X172099829Y-78326076D01*
X173975980Y-79259447D01*
X175780596Y-80324569D01*
X177504441Y-81515991D01*
X179138689Y-82827615D01*
X180674978Y-84252726D01*
X182105444Y-85784031D01*
X183422764Y-87413692D01*
X184620196Y-89133367D01*
X185691611Y-90934254D01*
X186631526Y-92807136D01*
X187435128Y-94742426D01*
X188098306Y-96730219D01*
X188617665Y-98760340D01*
X188990546Y-100822399D01*
X189215041Y-102905840D01*
X189290000Y-105000000D01*
X189241432Y-106686050D01*
X189046048Y-108772423D01*
X188701995Y-110839487D01*
X188211032Y-112876662D01*
X187575672Y-114873520D01*
X186799169Y-116819842D01*
X185885495Y-118705664D01*
X184839329Y-120521335D01*
X183666024Y-122257561D01*
X182371586Y-123905456D01*
X180962640Y-125456584D01*
X179446399Y-126903006D01*
X177830622Y-128237319D01*
X176123581Y-129452694D01*
X174334012Y-130542909D01*
X172471075Y-131502384D01*
X170544307Y-132326209D01*
X168563567Y-133010166D01*
X166538996Y-133550755D01*
X164480955Y-133945209D01*
X162399979Y-134191509D01*
X160306719Y-134288394D01*
X158211888Y-134235368D01*
X156126210Y-134032703D01*
X154060360Y-133681436D01*
X152024912Y-133183365D01*
X150030283Y-132541039D01*
X148086684Y-131757746D01*
X146204062Y-130837496D01*
X144392054Y-129784998D01*
X142659934Y-128605639D01*
X141016568Y-127305457D01*
X139470368Y-125891106D01*
X138029247Y-124369825D01*
X136700582Y-122749400D01*
X135491173Y-121038127D01*
X134407212Y-119244763D01*
X133454245Y-117378489D01*
X132637151Y-115448856D01*
X131960112Y-113465741D01*
X131426593Y-111439295D01*
X131039326Y-109379890D01*
X130898566Y-108153970D01*
X148736635Y-108153970D01*
X148896418Y-108472739D01*
X149687187Y-108782723D01*
X150536387Y-108766497D01*
X151245582Y-108472739D01*
X151405365Y-108153970D01*
X150071000Y-106819605D01*
X148736635Y-108153970D01*
X130898566Y-108153970D01*
X130800291Y-107298067D01*
X130755713Y-106256187D01*
X147928277Y-106256187D01*
X147944503Y-107105387D01*
X148238261Y-107814582D01*
X148557030Y-107974365D01*
X149891395Y-106640000D01*
X150250605Y-106640000D01*
X151584970Y-107974365D01*
X151903739Y-107814582D01*
X152213723Y-107023813D01*
X152197497Y-106174613D01*
X151903739Y-105465418D01*
X151584970Y-105305635D01*
X150250605Y-106640000D01*
X149891395Y-106640000D01*
X148557030Y-105305635D01*
X148238261Y-105465418D01*
X147928277Y-106256187D01*
X130755713Y-106256187D01*
X130710714Y-105204481D01*
X130712973Y-105126030D01*
X148736635Y-105126030D01*
X150071000Y-106460395D01*
X151405365Y-105126030D01*
X151245582Y-104807261D01*
X150454813Y-104497277D01*
X149605613Y-104513503D01*
X148896418Y-104807261D01*
X148736635Y-105126030D01*
X130712973Y-105126030D01*
X130771052Y-103109849D01*
X130980996Y-101024891D01*
X131339472Y-98960279D01*
X131844645Y-96926582D01*
X132468414Y-95012500D01*
X138477560Y-95012500D01*
X138477560Y-95937500D01*
X138545874Y-96280935D01*
X138740414Y-96572086D01*
X139031565Y-96766626D01*
X139375000Y-96834940D01*
X140108362Y-96834940D01*
X142825077Y-99551656D01*
X142874451Y-99625549D01*
X142948344Y-99674923D01*
X142948345Y-99674924D01*
X143059380Y-99749115D01*
X143167190Y-99821152D01*
X143425335Y-99872500D01*
X143425339Y-99872500D01*
X143512499Y-99889837D01*
X143599659Y-99872500D01*
X157320922Y-99872500D01*
X164652577Y-107204156D01*
X164701951Y-107278049D01*
X164775844Y-107327423D01*
X164775845Y-107327424D01*
X164886880Y-107401615D01*
X164994690Y-107473652D01*
X165252835Y-107525000D01*
X165252839Y-107525000D01*
X165339999Y-107542337D01*
X165427159Y-107525000D01*
X168413560Y-107525000D01*
X168413560Y-108140000D01*
X168462843Y-108387765D01*
X168603191Y-108597809D01*
X168813235Y-108738157D01*
X169061000Y-108787440D01*
X172061000Y-108787440D01*
X172308765Y-108738157D01*
X172518809Y-108597809D01*
X172659157Y-108387765D01*
X172708440Y-108140000D01*
X172708440Y-105140000D01*
X172659157Y-104892235D01*
X172518809Y-104682191D01*
X172308765Y-104541843D01*
X172061000Y-104492560D01*
X169061000Y-104492560D01*
X168813235Y-104541843D01*
X168603191Y-104682191D01*
X168462843Y-104892235D01*
X168413560Y-105140000D01*
X168413560Y-105755000D01*
X165706579Y-105755000D01*
X158374925Y-98423347D01*
X158325549Y-98349451D01*
X158032810Y-98153848D01*
X157774665Y-98102500D01*
X157774661Y-98102500D01*
X157687500Y-98085163D01*
X157600339Y-98102500D01*
X143879079Y-98102500D01*
X141522440Y-95745862D01*
X141522440Y-95012500D01*
X141454126Y-94669065D01*
X141259586Y-94377914D01*
X140968435Y-94183374D01*
X140625000Y-94115060D01*
X139375000Y-94115060D01*
X139031565Y-94183374D01*
X138740414Y-94377914D01*
X138545874Y-94669065D01*
X138477560Y-95012500D01*
X132468414Y-95012500D01*
X132493929Y-94934208D01*
X133284002Y-92993354D01*
X133755376Y-92037500D01*
X138477560Y-92037500D01*
X138477560Y-92962500D01*
X138545874Y-93305935D01*
X138740414Y-93597086D01*
X139031565Y-93791626D01*
X139375000Y-93859940D01*
X140625000Y-93859940D01*
X140968435Y-93791626D01*
X141259586Y-93597086D01*
X141454126Y-93305935D01*
X141522440Y-92962500D01*
X141522440Y-92229138D01*
X144006579Y-89745000D01*
X164531993Y-89745000D01*
X164894126Y-89895000D01*
X165305874Y-89895000D01*
X165686280Y-89737431D01*
X165977431Y-89446280D01*
X166135000Y-89065874D01*
X166135000Y-88654126D01*
X165977431Y-88273720D01*
X165686280Y-87982569D01*
X165305874Y-87825000D01*
X164894126Y-87825000D01*
X164531993Y-87975000D01*
X143727159Y-87975000D01*
X143639999Y-87957663D01*
X143552839Y-87975000D01*
X143552835Y-87975000D01*
X143294690Y-88026348D01*
X143294688Y-88026349D01*
X143294689Y-88026349D01*
X143075845Y-88172576D01*
X143075844Y-88172577D01*
X143001951Y-88221951D01*
X142952577Y-88295844D01*
X140108362Y-91140060D01*
X139375000Y-91140060D01*
X139031565Y-91208374D01*
X138740414Y-91402914D01*
X138545874Y-91694065D01*
X138477560Y-92037500D01*
X133755376Y-92037500D01*
X134210818Y-91113956D01*
X135269635Y-89305633D01*
X136455033Y-87577641D01*
X137760943Y-85938823D01*
X139180683Y-84397569D01*
X140706986Y-82961767D01*
X142332038Y-81638767D01*
X144047523Y-80435339D01*
X145813365Y-79376410D01*
X156865000Y-79376410D01*
X156865000Y-80623590D01*
X157342276Y-81775835D01*
X158224165Y-82657724D01*
X159376410Y-83135000D01*
X160623590Y-83135000D01*
X161775835Y-82657724D01*
X162657724Y-81775835D01*
X163135000Y-80623590D01*
X163135000Y-79376410D01*
X162657724Y-78224165D01*
X161775835Y-77342276D01*
X160623590Y-76865000D01*
X159376410Y-76865000D01*
X158224165Y-77342276D01*
X157342276Y-78224165D01*
X156865000Y-79376410D01*
X145813365Y-79376410D01*
X145844659Y-79357644D01*
X147714249Y-78411198D01*
X149646722Y-77600844D01*
X151632188Y-76930732D01*
X153660484Y-76404290D01*
X155721228Y-76024213D01*
X157803873Y-75792447D01*
X159897759Y-75710178D01*
X161992168Y-75777827D01*
G04 #@! TD*
M02*
